<svg xmlns="http://www.w3.org/2000/svg" xmlns:xlink="http://www.w3.org/1999/xlink" width="500" zoomAndPan="magnify" viewBox="0 0 375 374.999991" height="500" preserveAspectRatio="xMidYMid meet" version="1.2"><defs/><g id="3cb2138a1d"><g style="fill:#ffffff;fill-opacity:1;"><g transform="translate(-2.152115, 265.177212)"><path style="stroke:none" d="M 72.546875 -168.78125 L 72.546875 -114 L 168.484375 -114 L 168.484375 -75.515625 L 72.546875 -75.515625 L 72.546875 0 L 24.578125 0 L 24.578125 -207.28125 L 181.21875 -207.28125 L 181.21875 -168.78125 Z M 72.546875 -168.78125 "/></g></g><g style="fill:#ffffff;fill-opacity:1;"><g transform="translate(149.750481, 265.177212)"><path style="stroke:none" d="M 156.640625 0 L 116.671875 -57.734375 L 72.546875 -57.734375 L 72.546875 0 L 24.578125 0 L 24.578125 -207.28125 L 114.296875 -207.28125 C 132.660156 -207.28125 148.601562 -204.21875 162.125 -198.09375 C 175.644531 -191.976562 186.054688 -183.289062 193.359375 -172.03125 C 200.660156 -160.78125 204.3125 -147.457031 204.3125 -132.0625 C 204.3125 -116.664062 200.609375 -103.390625 193.203125 -92.234375 C 185.804688 -81.085938 175.296875 -72.550781 161.671875 -66.625 L 208.171875 0 Z M 155.75 -132.0625 C 155.75 -143.707031 152 -152.640625 144.5 -158.859375 C 137 -165.078125 126.046875 -168.1875 111.640625 -168.1875 L 72.546875 -168.1875 L 72.546875 -95.9375 L 111.640625 -95.9375 C 126.046875 -95.9375 137 -99.09375 144.5 -105.40625 C 152 -111.726562 155.75 -120.613281 155.75 -132.0625 Z M 155.75 -132.0625 "/></g></g><g style="fill:#ffffff;fill-opacity:1;"><g transform="translate(18.063093, 319.482693)"><path style="stroke:none" d="M 11.90625 -27.703125 L 11.90625 -18.71875 L 27.65625 -18.71875 L 27.65625 -12.390625 L 11.90625 -12.390625 L 11.90625 0 L 4.03125 0 L 4.03125 -34.03125 L 29.75 -34.03125 L 29.75 -27.703125 Z M 11.90625 -27.703125 "/></g></g><g style="fill:#ffffff;fill-opacity:1;"><g transform="translate(49.119026, 319.482693)"><path style="stroke:none" d="M 4.03125 -34.03125 L 11.90625 -34.03125 L 11.90625 -6.421875 L 28.96875 -6.421875 L 28.96875 0 L 4.03125 0 Z M 4.03125 -34.03125 "/></g></g><g style="fill:#ffffff;fill-opacity:1;"><g transform="translate(78.473925, 319.482693)"><path style="stroke:none" d="M 20.375 -12.0625 L 20.375 0 L 12.5 0 L 12.5 -12.15625 L -0.6875 -34.03125 L 7.6875 -34.03125 L 16.765625 -18.90625 L 25.859375 -34.03125 L 33.59375 -34.03125 Z M 20.375 -12.0625 "/></g></g><g style="fill:#ffffff;fill-opacity:1;"><g transform="translate(111.328094, 319.482693)"><path style="stroke:none" d="M 25.71875 0 L 19.15625 -9.484375 L 11.90625 -9.484375 L 11.90625 0 L 4.03125 0 L 4.03125 -34.03125 L 18.765625 -34.03125 C 21.773438 -34.03125 24.390625 -33.523438 26.609375 -32.515625 C 28.828125 -31.515625 30.535156 -30.085938 31.734375 -28.234375 C 32.941406 -26.390625 33.546875 -24.207031 33.546875 -21.6875 C 33.546875 -19.15625 32.9375 -16.972656 31.71875 -15.140625 C 30.5 -13.304688 28.773438 -11.90625 26.546875 -10.9375 L 34.171875 0 Z M 25.5625 -21.6875 C 25.5625 -23.59375 24.945312 -25.054688 23.71875 -26.078125 C 22.488281 -27.097656 20.691406 -27.609375 18.328125 -27.609375 L 11.90625 -27.609375 L 11.90625 -15.75 L 18.328125 -15.75 C 20.691406 -15.75 22.488281 -16.265625 23.71875 -17.296875 C 24.945312 -18.335938 25.5625 -19.800781 25.5625 -21.6875 Z M 25.5625 -21.6875 "/></g></g><g style="fill:#ffffff;fill-opacity:1;"><g transform="translate(147.049707, 319.482693)"><path style="stroke:none" d="M 30.375 -6.3125 L 30.375 0 L 4.03125 0 L 4.03125 -34.03125 L 29.75 -34.03125 L 29.75 -27.703125 L 11.859375 -27.703125 L 11.859375 -20.3125 L 27.65625 -20.3125 L 27.65625 -14.1875 L 11.859375 -14.1875 L 11.859375 -6.3125 Z M 30.375 -6.3125 "/></g></g><g style="fill:#ffffff;fill-opacity:1;"><g transform="translate(179.660866, 319.482693)"><path style="stroke:none" d="M 30.375 -6.3125 L 30.375 0 L 4.03125 0 L 4.03125 -34.03125 L 29.75 -34.03125 L 29.75 -27.703125 L 11.859375 -27.703125 L 11.859375 -20.3125 L 27.65625 -20.3125 L 27.65625 -14.1875 L 11.859375 -14.1875 L 11.859375 -6.3125 Z M 30.375 -6.3125 "/></g></g><g style="fill:#ffffff;fill-opacity:1;"><g transform="translate(212.272025, 319.482693)"><path style="stroke:none" d="M 4.03125 -34.03125 L 11.90625 -34.03125 L 11.90625 -6.421875 L 28.96875 -6.421875 L 28.96875 0 L 4.03125 0 Z M 4.03125 -34.03125 "/></g></g><g style="fill:#ffffff;fill-opacity:1;"><g transform="translate(241.626924, 319.482693)"><path style="stroke:none" d="M 6.375 0.390625 C 5.039062 0.390625 3.921875 -0.0625 3.015625 -0.96875 C 2.109375 -1.875 1.65625 -3.007812 1.65625 -4.375 C 1.65625 -5.769531 2.109375 -6.894531 3.015625 -7.75 C 3.921875 -8.613281 5.039062 -9.046875 6.375 -9.046875 C 7.695312 -9.046875 8.8125 -8.613281 9.71875 -7.75 C 10.625 -6.894531 11.078125 -5.769531 11.078125 -4.375 C 11.078125 -3.007812 10.625 -1.875 9.71875 -0.96875 C 8.8125 -0.0625 7.695312 0.390625 6.375 0.390625 Z M 6.375 0.390625 "/></g></g><g style="fill:#ffffff;fill-opacity:1;"><g transform="translate(254.360325, 319.482693)"><path style="stroke:none" d="M 26.4375 -7.296875 L 10.640625 -7.296875 L 7.625 0 L -0.4375 0 L 14.734375 -34.03125 L 22.5 -34.03125 L 37.71875 0 L 29.453125 0 Z M 23.96875 -13.265625 L 18.5625 -26.296875 L 13.171875 -13.265625 Z M 23.96875 -13.265625 "/></g></g><g style="fill:#ffffff;fill-opacity:1;"><g transform="translate(291.588587, 319.482693)"><path style="stroke:none" d="M 25.71875 0 L 19.15625 -9.484375 L 11.90625 -9.484375 L 11.90625 0 L 4.03125 0 L 4.03125 -34.03125 L 18.765625 -34.03125 C 21.773438 -34.03125 24.390625 -33.523438 26.609375 -32.515625 C 28.828125 -31.515625 30.535156 -30.085938 31.734375 -28.234375 C 32.941406 -26.390625 33.546875 -24.207031 33.546875 -21.6875 C 33.546875 -19.15625 32.9375 -16.972656 31.71875 -15.140625 C 30.5 -13.304688 28.773438 -11.90625 26.546875 -10.9375 L 34.171875 0 Z M 25.5625 -21.6875 C 25.5625 -23.59375 24.945312 -25.054688 23.71875 -26.078125 C 22.488281 -27.097656 20.691406 -27.609375 18.328125 -27.609375 L 11.90625 -27.609375 L 11.90625 -15.75 L 18.328125 -15.75 C 20.691406 -15.75 22.488281 -16.265625 23.71875 -17.296875 C 24.945312 -18.335938 25.5625 -19.800781 25.5625 -21.6875 Z M 25.5625 -21.6875 "/></g></g><g style="fill:#ffffff;fill-opacity:1;"><g transform="translate(327.3102, 319.482693)"><path style="stroke:none" d="M 11.078125 -27.609375 L 0.1875 -27.609375 L 0.1875 -34.03125 L 29.84375 -34.03125 L 29.84375 -27.609375 L 18.953125 -27.609375 L 18.953125 0 L 11.078125 0 Z M 11.078125 -27.609375 "/></g></g></g></svg>