<svg xmlns="http://www.w3.org/2000/svg" xmlns:xlink="http://www.w3.org/1999/xlink" width="500" zoomAndPan="magnify" viewBox="0 0 375 374.999991" height="500" preserveAspectRatio="xMidYMid meet" version="1.2"><defs/><g id="7ade8cb51d"><g style="fill:#ffffff;fill-opacity:1;"><g transform="translate(-4.72732, 294.788537)"><path style="stroke:none" d="M 74 -172.15625 L 74 -116.28125 L 171.84375 -116.28125 L 171.84375 -77.015625 L 74 -77.015625 L 74 0 L 25.0625 0 L 25.0625 -211.40625 L 184.828125 -211.40625 L 184.828125 -172.15625 Z M 74 -172.15625 "/></g></g><g style="fill:#ffffff;fill-opacity:1;"><g transform="translate(150.208811, 294.788537)"><path style="stroke:none" d="M 159.765625 0 L 119 -58.890625 L 74 -58.890625 L 74 0 L 25.0625 0 L 25.0625 -211.40625 L 116.578125 -211.40625 C 135.304688 -211.40625 151.566406 -208.285156 165.359375 -202.046875 C 179.148438 -195.804688 189.769531 -186.945312 197.21875 -175.46875 C 204.664062 -163.988281 208.390625 -150.398438 208.390625 -134.703125 C 208.390625 -118.992188 204.613281 -105.453125 197.0625 -94.078125 C 189.507812 -82.703125 178.789062 -73.992188 164.90625 -67.953125 L 212.3125 0 Z M 158.859375 -134.703125 C 158.859375 -146.578125 155.03125 -155.6875 147.375 -162.03125 C 139.726562 -168.375 128.554688 -171.546875 113.859375 -171.546875 L 74 -171.546875 L 74 -97.859375 L 113.859375 -97.859375 C 128.554688 -97.859375 139.726562 -101.078125 147.375 -107.515625 C 155.03125 -113.960938 158.859375 -123.023438 158.859375 -134.703125 Z M 158.859375 -134.703125 "/></g></g></g></svg>